<svg width="583" height="408" viewBox="0 0 583 408" fill="none" xmlns="http://www.w3.org/2000/svg">
<g clip-path="url(#clip0)">
<path d="M40 167.5L44.5 160L47 155L49 147L51 141L53.5 135L55 131L57.5 129V135.5L58.5 139.5L60.5 140.5L64.5 138.5L67.5 135L68.5 130L69.5 124.5V122.5L70 117.5L69.5 110V100.5L70.5 91.5L73.5 81L75.5 78L78.5 76H81L82 79.5L81 84L83.5 89L86 91.5L89.5 89L93.5 86L97.5 79.5L101.5 72.5L104.5 69L106.5 65L109 63L112 59.5L116 56L119.5 54.5L124.5 52L129.5 50L134.5 48L141 46.5L150 46L153.5 46.5L156 48L157.5 50.5L158 52.5L157.5 55L153 63L149 66.5L146 69L142 72.5L138 76L135.5 77.5L128.5 83L125 86L119.5 91L115 95.5L112.5 99.5L111 103.5L112 106L112.5 107L117.5 107.5L121.5 108.5V110.5L121 112.5L117.5 116L111.5 119L105 122.5L99 125L94.5 128L91 133.5L89 137.5L87.5 141.5L84.5 144.5L80 151L79.5 153.5L77.5 157.5L74.5 160L67.5 163L60 165L52 167.5L44 169L40 167.5Z" fill="#00A8A3"/>
<path d="M215.5 123.5L211 125L207 127L201.5 131.5L199.5 136L199 140L200 147L202.5 150.5L204 152.5L207 155L211 156L216 157L220 156.5L224.5 154.5L227.5 151L230 148L231.5 142V136L229.5 132.5L227.5 129.5L227 127L228.5 124.5L229.5 122.5L226 122L224.5 118.5L224 116L221.5 117.5L219 119L216 121L215.5 123.5Z" fill="white"/>
<path d="M580.5 222L574.5 224L568 225L559.5 227L553 229L548.5 231.5L544 235.5L541 238.5L540 242.5L539.5 247L541 252L543 258L546.5 262.5L550.5 267.5L554.5 272.5L560 278L566 284L571.5 288.5L580.5 295.5L588 296.5L590.5 284L589.5 260.5V230.5L589 224L588 219.5L580.5 222Z" fill="#34E4DF"/>
<path d="M411 66L410 72.5L411 82L416.5 90L423.5 96.5L433 101L449 102L463 101L469.5 102.5L472 106L471 111L467 117.5L466.5 123.5L469.5 125.5L475 125L481 122.5L489.5 119C491.333 118.167 495.1 116.5 495.5 116.5C495.9 116.5 501 115.833 503.5 115.5L509.5 116.5L514 118.5L516.5 121.5L516 123.5L513.5 125.5L512 128.5L513.5 130H518.5L525 130.5L530 132.5L533.5 134.5H538L538.5 131.5L538 123.5L536.5 109.5L534.5 100.5L532 97.5L529.5 96L527 97L525 101L523 102.5L521 101.5L518.5 97L514 89L508.5 79L505 74.5L502 72L499 71L496.5 71.5L492.5 73.5L489.5 76L485 77.5L480.5 77L474.5 74.5L469.5 71.5L464 68L458.5 64.5L453 61L445.5 58L438 55.5L434 55L429.5 54.5L424.5 55L419 57.5L414.5 60L411 66Z" fill="#00A9A4"/>
<path d="M521.5 163.5C521.5 157.5 525.3 143.9 540.5 137.5C555.7 131.1 567.167 137.5 571 141.5C575.167 146.834 581.8 161.2 575 176C568.2 190.8 565.833 199.167 565.5 201.5L558.5 192.5L545.5 186.5L533 183L524 174.5L521.5 163.5Z" fill="#FF736E"/>
<path d="M342 82.9994C343.333 78.8327 347.2 71.2994 352 74.4994C358 78.4994 360 83.5 358.5 88.5L356.5 90L353 86L349 90.5L342 82.9994Z" fill="#00A9A2"/>
<path d="M304 84C309.333 89.6667 316.8 104.4 304 118C300.167 120.667 289.8 122.9 279 110.5L284.5 108.5L285.5 94.5L304 84Z" fill="#7C7EC8"/>
<path d="M114 147L110.5 143.5L103.5 141L99 140H93.5L86.5 142L84 145L81 149L80 153.5L79 159.5V166.5L81 172.5L82 176.5L83 179.5V183.5L82.5 187L82 190.5L85 191.5H89.5L93.5 192H96.5L103.5 191.5H109L114.5 191L117.5 190.5L121 189L124.5 187L128 184L130.5 181.5L133.5 177.5L134 175L134.5 173L134 170L133.5 166.5L132 164L130.5 161.5L129.5 159.5L127.5 157.5L126 156.5L123.5 154L120.5 152L115.5 149L114 147Z" fill="#FF736E"/>
<path d="M114 142.5L115.5 140L118 136.5L119.5 133L125.5 123.5L128.5 118.5L136 106L137.5 103L140 100L142.5 99L144 99.5L145 100.5L146.5 101.5L145.5 104.5C145 105 144 106.1 144 106.5C144 106.9 142.333 109.333 141.5 110.5L138 115.5L137 117.5L130 127.5L128 130.5L127 134V136L133 134.5L135.5 129L141 124.5L144.5 121L147.5 114.5L152 112.5L155.5 110.5L158 110L159.5 111.5L157.5 116.5L152.5 121.5L145 129L132.5 141.5L126.5 147.5L121 152L117.5 149L114 145V142.5Z" fill="#36E1DE"/>
<path d="M124 152.5L127 148L135 141L137.5 137.5L141 135.5L145.5 130.5L149 127L152 124L155.5 121L157 122L158.5 124.5L156 128L149 134.5L144.5 138.5L138.5 143.5L134.5 147L132.5 149L127 154H124V152.5Z" fill="white"/>
<ellipse cx="188" cy="191" rx="19" ry="18" fill="#7B7FC8"/>
<path d="M186 196L188.5 193L194 192L196 194.5V200.5L187.5 203H184.5V200.5L186 196Z" fill="#00A6A2"/>
<path d="M301 165L336.5 159L371 155L388 152.5H393L394 156.5L395 169.5L396 210.5V222L394.5 230.5L400.5 235L401.5 238V247V255L399.5 267L397.5 273.5L399 279.5L401.5 282.5L404 285.5L405 289L405.5 291.5V293.5V297.5L404 300.5L401.5 303.5L397 307.5L394 309L388.5 317.5L387 321L378.5 325L374.5 330.5L371 333.5L366 336L362 339L357 343L356 348.5L355.5 352L355 354.5L353 364L352 367L351.5 368.5L348.5 370H341.5L334.5 369L326 369.5L324.5 368L326.5 364L327 359L328 353L327.5 348.5L325 348L321.5 346.5L318.5 342L316 335.5L314.5 330.5L315 325L314 321L311.5 318.5L310 315L309.5 312.5L311 309.5L312.5 307L314 306L316 303.5L317.5 298V292.5V289.27L307 293.5L302 292L300.5 288L301.5 285L303.5 283L311 268L321 263.5L323.5 253L324.5 247V240.223L323.5 233.5L322.5 230.5L323.5 227L324.5 224L323 219.5L320.5 212L311.5 190L305 176L300.5 166.5L301 165Z" fill="white"/>
<path d="M417.5 401.5L421.5 405.5L423 406.5L422 415L152 423L149.5 406.5L148 405.5L138 394L131.5 385.5L126.5 379L124.5 375L127.5 368L120.5 354L114.5 344L94 306.5L78 279L72 271.5L65 268.5L58.5 267L50 266.5L42 265L33 257.5L22 246L18.5 241.5L19 240V237L18.5 236.5L17 234L16.5 231.5L17 229.5V228L18 226.5H19.5L27.5 232L30 234C30.6667 234.667 32 235.9 32 235.5C32 235.1 30.3333 232 29.5 230.5L27 225.5L28 225L31.5 227L33.5 228.5L42 236L50 240.5C50.6667 240.667 52.1 241 52.5 241C52.9 241 54.3333 240.667 55 240.5L57.5 238L58 234V229.5L57 225.5L57.5 223.5L58 222L59.5 222.5L62 225.5L65 231.5L70.5 242.5L76 249.5C78 251.667 82.2 256.2 83 257C83.8 257.8 88.3333 264.333 90.5 267.5L114 301.5L134.5 333L141 342.5L147 345L150 341L155.5 342L162.5 346.5L168 351.5L176 357L182.5 361.5L185 366L184.5 370.5L187 373.5L208 388.5L213 389.5L225 393L240.5 396L256.5 399H257.5H259L260 398L262 396L264 393.5L265 393L274 392.5H280.5L284 393L298 394L304.5 393.5L307 391L308 388.5L309.5 385.5V381.5L313.5 380.5L347 375.5L358.5 378L365.5 381.5L366 385.5L365 392L367.5 397L374 399L383 400.5L394 401L407.312 400.5L417.5 401.5Z" fill="white"/>
<path d="M321.5 371.5L324 369L340 369.5L346.5 370L352 369H353.5L355.5 370V374V377H364L369.5 366.5L377.5 356.5L394.5 352.5L407 351L414 349.5L414.5 352.5L411.5 359L403 370L389.5 377L382 378.5L385.5 385L387.5 391.5L375 389L366.5 385L364 378.5L340 378L334.5 382.5L332 388.5L328.5 393L324 390L319 381L320 374L321.5 371.5Z" fill="#FD746C"/>
<path d="M311.9 22.1993C309.7 23.9993 307 28.5993 307 30.4993C307 33.1993 310.8 32.0993 313.4 28.6993C317.5 23.3993 316.3 18.5993 311.9 22.1993Z" fill="black"/>
<path d="M476.8 32.7984C475.6 33.6984 474.2 34.8984 473.8 35.3984C472.4 37.3984 473 42.6984 474.9 45.0984C476.8 47.4984 476.7 47.4984 473.9 50.9984C470.4 55.0984 470.3 56.1984 473.3 59.1984C478.4 64.5983 484.2 64.4983 487.5 59.1984C489.1 56.5984 490 56.0984 492.1 56.3984C494.7 56.8984 499.9 54.7984 501.2 52.6984C501.6 51.9984 502 50.0984 502 48.2984C502 45.7984 501.1 44.3984 497.8 41.4984C492.8 37.2984 485.9 33.0984 482 31.9984C480 31.3984 478.5 31.5984 476.8 32.7984ZM500 48.7984C500 52.2984 493.8 55.8984 491.4 53.8984C489.3 52.1984 489.7 50.6984 492.2 51.2984C494.8 51.9984 498 50.4984 498 48.4984C498 47.6984 498.5 46.9984 499 46.9984C499.6 46.9984 500 47.7984 500 48.7984ZM487.6 54.5984C486.7 57.9984 483.5 60.9984 480.8 60.9984C478.1 60.9984 473.2 57.4984 474.3 56.3984C474.7 55.9984 475.8 56.3984 476.8 57.2984C479.8 59.9983 481.7 59.2983 484.7 54.2984C487.4 49.6984 488.8 49.7984 487.6 54.5984Z" fill="#8F6F5F"/>
<path d="M158.424 92.1243C158.902 93.7503 159.62 95.7065 159.991 96.3275C161.555 98.5998 167.403 100.058 170.695 98.9952C173.986 97.9319 173.947 98.0377 176.546 102.385C179.504 107.71 180.629 108.25 184.99 106.26C192.722 102.994 194.907 96.814 190.6 91.2265C188.48 88.5054 188.306 87.3551 189.453 85.2504C191.01 82.6954 190.841 76.3606 189.131 74.1547C188.548 73.4547 186.695 72.2806 184.789 71.5694C182.142 70.5818 180.305 70.9815 175.931 73.3294C169.509 76.9634 162.337 82.6089 159.631 86.3031C158.206 88.1834 157.825 89.8505 158.424 92.1243ZM184.528 73.8843C188.234 75.2671 189.595 83.2531 186.53 85.0038C183.9 86.5553 182.47 85.5393 184.093 83.1296C185.862 80.6536 185.538 76.6733 183.42 75.8831C182.573 75.5671 182.03 74.7612 182.228 74.2319C182.465 73.5967 183.47 73.4892 184.528 73.8843ZM185.77 89.3033C189.013 91.5993 190.925 96.1723 189.859 99.0307C188.792 101.889 183.151 105.694 182.421 104.095C182.155 103.513 183.013 102.507 184.361 101.804C188.405 99.6943 188.414 97.4063 184.306 92.2549C180.503 87.5791 181.162 86.1365 185.77 89.3033Z" fill="#8F6F5F"/>
<path d="M210 33.4C201.4 35.8 196.9 39.2 193.6 45.7C191.6 49.7 191.6 54.4 193.5 60.1C197.1 70.5 204.1 75.2 223 79.5C229.3 80.9 238.6 83 243.5 84.1C256.4 87 267.3 92.6 275.7 100.6C282.4 107.1 282.4 108 275.6 105.4C272.6 104.3 273.9 108 277.8 111.9C284.9 119.1 289.6 121.5 296.7 121.5H303.1L304.3 125.7C304.9 128.1 305.8 130 306.2 130C307.2 130 307.2 129.5 305.9 124.1C305 120.1 305.2 119.4 307.5 116C312.2 109.2 313.2 101.4 310.5 92.4C308.8 86.6 304.6 81.6 302 82.3C300.7 82.6 299.3 81.4 296.9 77.7C293.7 72.7 282 60.4 275 54.5C256.5 39 240.1 31.9 223 32.1C218.3 32.1 212.5 32.7 210 33.4ZM223.9 39.6C229.5 40.7 227.2 41.8 219 41.9C210.9 42 207.9 40.4 214.8 39.7C216.8 39.5 219 39.3 219.6 39.2C220.2 39.1 222.2 39.3 223.9 39.6ZM252.9 47C264.2 52.4 281 65 281 68.1C281 69.8 279.5 69 276.6 66C271.3 60.3 262.5 54.3 253.3 49.9C244.7 45.8 242.2 44 245.3 44C245.9 44 249.4 45.4 252.9 47ZM307.2 89.2C308.8 92.4 309.4 95.4 309.4 100.5C309.5 109.2 307.9 113.1 302.9 116.5C299.6 118.8 298.4 119.1 294.6 118.6C292.1 118.2 288.3 116.5 285.5 114.5L280.7 111.2L283.6 110.8C286.5 110.5 286.5 110.4 286.4 104.2C286.4 100.8 286.5 98 286.7 98C286.9 98 288.7 99.5 290.6 101.4C295.6 106.2 298 105.4 298 98.8C298 94.3 298.1 94 300 95C302.4 96.3 304 93.8 304 88.6C304 86.6 304.2 85 304.5 85C304.7 85 305.9 86.9 307.2 89.2Z" fill="black"/>
<path d="M349.7 36.4C339.8 40 334.5 47.8 334.6 59C334.6 65.7 336.3 70.4 340.3 74.7C342.1 76.8 342.2 77.1 340.7 80.2C338.5 84.9 337.7 88.5 338.5 90.9C339.4 93.9 341.4 93.5 342.7 89.9C343.9 86.7 346 86.7 346 89.9C346 91.9 347.9 94 349.6 94C350.3 94 351.1 92.6 351.5 91C352.3 87.3 353.3 87.2 355.8 90.7L357.9 93.5L358.9 90.7C359.5 89.1 360 86.3 360 84.4C360 81.6 360.4 81 362.3 80.9C369.6 80.8 379.3 73.5 381.1 66.7C383.3 58.4 380.6 47.1 374.9 41.1C369.7 35.5 358.2 33.4 349.7 36.4ZM369 39.5C373.2 41.7 374.4 43.1 377.5 49.5C384 62.7 377.3 76.3 363.3 78.6C359.8 79.1 359 78.8 356.3 76.1C353.1 72.9 348.2 72 345 74C343.2 75.1 341.4 73.7 339 69.1C333.1 57.3 338 42.7 349.3 38.6C354.6 36.6 364.3 37.1 369 39.5ZM355.2 78C357.4 81 358.8 88 357.2 88C356.6 88 355.8 87.1 355.5 86C354.6 83.3 351.1 83.4 350.1 86.2C349.1 88.7 349 88.6 347.4 83.1C347.1 82.3 346.2 82 345 82.3C343.9 82.6 343 82.5 343 82.1C343 80.6 346.3 76.8 348.4 76C351.5 74.7 353 75.2 355.2 78Z" fill="black"/>
<path d="M316.1 37.3999C314.8 38.9999 316.4 44.5999 318.5 45.3999C320.5 46.0999 322.3 43.3999 321.6 40.4999C320.8 37.2999 317.6 35.4999 316.1 37.3999Z" fill="black"/>
<path d="M299.3 38.1989C298.2 39.4989 297.7 42.0989 297.9 45.1989C298.1 48.2989 300.8 47.0989 302 43.3989C303 40.3989 303 39.4989 301.8 38.2989C300.6 37.1989 300.1 37.0989 299.3 38.1989Z" fill="black"/>
<path d="M134.8 45.8986C127.3 48.2986 117.5 53.3986 112.4 57.4986C109.2 60.1986 104.9 65.1986 99.2002 72.9986C99.0002 73.1986 98.6002 72.9986 98.2002 72.3986C97.2002 70.7986 93.3002 69.7986 91.2002 70.4986C89.4002 70.9986 87.0002 74.8986 87.0002 77.0986C87.0002 77.6986 88.4002 79.4986 90.0002 80.9986L93.0002 83.7986L90.4002 86.8986C87.1002 90.7986 85.0002 90.8986 85.0002 87.1986C85.0002 85.6986 84.6002 83.9986 84.1002 83.4986C83.6002 82.8986 83.0002 80.6986 82.8002 78.4986C82.6002 75.1986 82.1002 74.3986 80.2002 74.1986C75.9002 73.5986 71.5002 79.5986 69.1002 89.2986C68.4002 92.1986 68.0002 100.899 68.1002 110.899C68.2002 126.099 68.0002 128.199 66.1002 132.599C63.9002 137.499 62.6002 138.999 60.1002 138.999C59.1002 138.999 58.9002 137.699 59.2002 133.499C60.0002 123.499 54.6002 123.599 51.6002 133.699C43.0002 162.099 40.6002 166.199 27.3002 174.999C19.5002 180.099 22.0002 180.599 30.2002 175.499C35.4002 172.299 38.7002 170.899 42.9002 170.399C49.7002 169.599 66.9002 164.599 72.0002 161.999C76.2002 159.899 77.0002 160.199 77.0002 163.899C77.0002 165.299 77.9002 168.399 79.0002 170.799C84.6002 183.099 81.8002 191.899 70.5002 197.099C65.5002 199.399 56.0002 199.599 51.9002 197.399C48.0002 195.399 45.8002 196.099 49.1002 198.399C55.7002 202.699 66.7002 201.899 75.8002 196.299C81.9002 192.699 82.9002 192.499 100.2 192.899C114 193.199 120.5 191.699 127.2 186.599C136.7 179.299 138.2 169.899 131.5 160.099L128 155.099L131.3 151.999C133 150.399 139 145.099 144.5 140.299C150 135.499 156 129.899 157.7 127.899L161 124.299L158.9 121.599L156.8 118.899L159.6 115.899C162.7 112.699 162.4 110.999 158.3 108.299C156.5 107.099 156 107.099 154.9 108.299C154.2 108.999 152.6 109.499 151.5 109.199C148.8 108.699 148.5 109.099 137.5 122.899C132.7 128.999 128.5 133.999 128.3 133.999C127.6 133.999 131.8 127.299 136.2 121.399C142.9 111.999 148 103.699 148 101.799C148 99.3986 141.5 96.1986 139.4 97.4986C138.5 98.0986 136.5 100.999 134.8 103.999C133.1 106.999 128.9 114.399 125.6 120.499C122.2 126.499 117.8 134.099 115.7 137.199L112 142.999L107.8 140.699C104.6 139.099 101.8 138.499 96.8002 138.499C93.0002 138.499 90.0002 138.399 90.0002 138.199C90.0002 138.099 90.6002 136.499 91.4002 134.699C93.3002 129.999 98.1002 126.299 108.7 121.399C119 116.599 121.5 114.699 122.5 110.799C123.3 107.699 121 105.999 116.1 105.999C112.2 105.999 111.6 104.799 113.5 100.399C115.4 95.7986 125.2 86.1986 136 78.4986C156.7 63.5986 163.3 53.2986 156.5 46.4986C154.4 44.2986 153.2 43.9986 147.3 44.0986C143.6 44.0986 137.9 44.8986 134.8 45.8986ZM154.9 48.9986C156.8 50.5986 157.1 51.5986 156.6 54.1986C155.6 59.1986 148.3 67.0986 136.7 75.5986C123.7 85.0986 116.1 92.0986 112.1 98.4986C109.2 103.099 109.1 103.399 110.6 106.299C112 108.999 112.5 109.199 116.1 108.699C118.2 108.399 120.3 108.599 120.6 109.099C122 111.399 117.5 114.999 107.3 119.899C94.8002 125.999 91.7002 128.599 89.3002 134.899C88.4002 137.399 85.9002 141.099 83.9002 143.099C81.8002 145.199 79.4002 149.099 78.3002 152.099C76.5002 157.099 75.9002 157.699 70.5002 160.399C64.9002 163.099 48.0002 167.999 44.2002 167.999C43.3002 167.999 45.7002 165.999 49.5002 163.499C57.0002 158.699 69.6002 146.699 76.0002 138.499C78.1002 135.699 83.0002 127.299 86.9002 119.799C96.7002 100.599 99.3002 97.2986 107.6 92.6986C116.2 87.9986 122 83.9986 122 82.7986C122 80.5986 118.8 81.1986 113.7 84.3986C110.6 86.3986 107.9 87.9986 107.6 87.9986C106.6 87.9986 115.7 79.9986 120.1 76.8986C122.5 75.2986 127.8 71.7986 131.7 69.1986C138.6 64.6986 140.2 62.7986 138 61.4986C137.5 61.1986 133.2 63.3986 128.5 66.4986C123.8 69.4986 119.7 71.9986 119.5 71.9986C118.3 71.9986 119.3 70.0986 123.1 65.4986C128.7 58.7986 129.5 57.0986 127.5 56.3986C125.3 55.4986 118.9 62.8986 114.4 71.4986C112.4 75.3986 108 81.3986 104.5 84.9986C97.7002 91.9986 93.3002 98.3986 85.8002 112.499L80.9002 121.499L81.2002 110.699C81.4002 102.899 81.2002 99.9986 80.3002 99.9986C78.0002 99.9986 77.5002 102.599 77.0002 116.599L76.5002 130.699L72.2002 136.399C67.1002 143.099 56.1002 153.699 46.8002 160.799C45.6002 161.799 45.9002 160.299 48.1002 154.999C49.8002 151.199 52.0002 144.499 53.0002 140.299C55.3002 131.399 56.0002 130.299 56.0002 135.299C56.0002 140.499 56.9002 141.999 59.9002 141.999C67.0002 141.899 72.8002 129.899 71.4002 118.099C70.7002 112.199 70.8002 95.0986 71.6002 93.7986C71.9002 93.3986 73.2002 93.5986 74.6002 94.1986C76.5002 95.0986 77.9002 95.0986 80.4002 94.1986C82.2002 93.4986 84.7002 92.9986 85.9002 92.9986C88.5002 92.9986 99.5002 82.2986 100.6 78.6986C101.4 75.9986 111.1 60.9986 112 60.9986C112.4 60.9986 114.5 59.7986 116.6 58.2986C131 48.4986 149 44.0986 154.9 48.9986ZM80.0002 78.3986C80.0002 79.0986 79.1002 79.9986 78.0002 80.2986C75.7002 80.8986 75.5002 80.4986 77.3002 78.4986C78.9002 76.6986 80.0002 76.5986 80.0002 78.3986ZM145.8 101.499C146.4 101.999 132.8 123.199 129 127.499C128.1 128.599 125.9 131.999 124.2 134.999C119.5 143.199 116.4 146.699 115 145.399C114.1 144.499 115.3 141.999 119.7 134.899C123 129.699 127.4 122.299 129.5 118.499C139.8 99.3986 140.4 98.5986 143.4 100.199C144.5 100.799 145.6 101.399 145.8 101.499ZM159 112.399C159 112.999 157 115.699 154.5 118.499C146.9 126.899 122.7 150.999 121.8 150.999C119.6 150.999 121.9 147.699 131.8 137.299C137.7 130.999 145.5 122.299 149.2 117.899C153.8 112.599 156.5 110.299 157.5 110.599C158.3 110.999 159 111.699 159 112.399ZM158 124.199C158 125.399 155.7 127.699 143.5 138.599C138 143.499 132.4 148.499 131 149.799C127.4 153.099 125 154.399 125 152.899C125 152.199 131.8 144.799 140.2 136.399C152 124.499 155.7 121.299 156.7 122.199C157.4 122.799 158 123.699 158 124.199ZM110.2 145.699C113 147.699 116.3 150.399 117.6 151.699C118.9 152.999 120.5 153.999 121.3 153.999C123.1 153.999 129.6 160.299 131.4 163.799C136.3 173.599 132.8 181.799 120.8 188.199C116.8 190.299 115.3 190.499 99.7002 190.499C85.2002 190.499 83.1002 190.299 83.6002 188.999C85.4002 184.499 85.1002 179.799 82.5002 171.999C79.4002 162.799 79.2002 156.999 81.5002 151.399C86.2002 140.099 99.1002 137.499 110.2 145.699Z" fill="black"/>
<path d="M124.7 167.2C123.9 169 122.6 171.1 121.7 171.9C120 173.3 119.4 176 120.8 176C123.8 176 129.9 167.3 128.5 165C127.4 163.2 126 164 124.7 167.2Z" fill="black"/>
<path d="M122.5 180.499C119 182.899 111.9 184.599 103.5 184.899C95.7002 185.199 92.7002 186.099 94.9002 187.499C97.1002 188.799 111.7 188.099 116.6 186.399C121.9 184.599 127 181.399 127 179.899C127 178.599 124.8 178.899 122.5 180.499Z" fill="black"/>
<path d="M421.7 54.4987C413.4 57.5987 409.9 61.6987 408.5 69.7987C407.4 76.2987 409.6 83.1987 414.7 89.9987C418.4 94.8987 420.5 96.5987 426.8 99.6987L434.4 103.499L445.5 103.099C467 102.399 467.8 102.399 469.7 104.199C471.3 105.899 471.2 106.299 467.6 113.399C463.5 121.299 463.4 124.099 467.2 126.099C470 127.599 473.2 126.799 486.4 121.499C494.8 118.199 499.1 116.999 502.9 116.999C507.9 116.999 515 119.299 515 120.899C515 121.299 513.9 122.699 512.5 123.999C507.5 128.699 510.2 132.599 517.8 131.499C523.5 130.699 529.6 132.799 532.2 136.399C533.8 138.599 533.7 138.799 528.5 144.399C520.6 152.799 518.2 162.499 521.5 172.099C524.5 180.599 530.3 184.599 544.6 188.099C557.7 191.299 562.3 195.299 564.4 205.199C565.3 209.299 567 208.599 567 204.199C567.1 202.199 567.9 198.199 568.9 195.499C576.9 174.199 579 167.199 579 161.499C579 152.799 576 144.799 571 140.199C564.8 134.499 557.3 132.699 545.9 134.499C541.5 135.099 541.3 135.099 540.2 132.299C539.6 130.799 538.9 125.199 538.5 119.999C538.2 114.799 537.5 108.199 536.9 105.299C535 95.4987 529.3 91.9987 524.8 97.9987C523.6 99.5987 522.3 100.999 521.9 100.999C521.5 100.999 518.2 95.1987 514.6 88.0987C507.1 73.6987 504.9 71.0987 499.3 70.2987C496.1 69.8987 494.7 70.3987 490.5 73.1987C486.5 75.9987 484.9 76.4987 482.5 75.9987C479.3 75.2987 471.6 71.1987 466.5 67.3987C460.8 63.1987 448.5 56.2987 443.6 54.6987C437.7 52.6987 427 52.5987 421.7 54.4987ZM442.4 57.6987C447.4 59.2987 456.9 64.3987 462.5 68.4987C464.2 69.7987 469.6 72.8987 474.6 75.3987C484.7 80.6987 485.9 80.5987 493 74.9987C495.1 73.2987 497.7 71.9987 498.8 71.9987C502.8 71.9987 506.9 76.9987 513.2 89.4987C520.3 103.599 522.9 106.099 526.1 101.999C527.1 100.599 528 98.8987 528 98.1987C528 96.0987 530.9 96.8987 532.6 99.4987C534.6 102.599 535.6 107.699 536.4 118.999C536.8 123.699 537.3 128.799 537.5 130.499C537.9 132.799 537.4 132.199 535.2 127.999C532.1 121.899 528.3 116.199 524.8 112.399C521.7 108.999 508.5 98.8987 503.3 95.8987C500.1 94.0987 498.5 92.0987 496.3 87.6987C493.5 81.7987 490.7 78.9987 489.5 81.0987C489.1 81.5987 489.4 83.4987 490 85.0987C490.7 86.6987 491.1 88.2987 490.8 88.4987C490.5 88.7987 487.7 87.7987 484.4 86.3987C475 82.1987 465.3 79.0987 454.8 76.9987C443.8 74.7987 439.7 72.9987 432.2 67.0987C429.4 64.7987 426.6 62.9987 426 62.9987C423.7 62.9987 425.3 66.5987 429.3 70.2987L433.5 74.2987L430.4 73.6987C427 73.0987 424.8 74.3987 425.7 76.5987C426 77.4987 427.7 77.9987 430.1 77.9987C432.2 77.9987 437.4 78.4987 441.6 79.0987L449.3 80.2987L443.4 82.6987C436.3 85.6987 434.7 86.9987 436 88.9987C436.8 90.1987 437.4 90.1987 440.7 88.5987C454 82.0987 459.1 81.6987 471.7 86.0987C478.6 88.4987 501.2 98.9987 502.8 100.499C503 100.699 501 101.099 498.3 101.499C491.3 102.499 482.1 106.199 481.4 108.299C480.5 111.299 481.5 111.299 488.5 108.599C496.6 105.299 506.8 104.799 511.8 107.399C516.5 109.799 525.2 118.899 529.3 125.799C531.4 129.099 533 132.099 533 132.399C533 132.799 530.8 131.899 528 130.399C523.9 128.199 522.3 127.799 518.5 128.299C513.5 128.999 512.7 127.899 516.2 125.099C521.6 120.599 514 113.999 503.2 113.899C497.3 113.799 487 116.999 480 121.199C474.4 124.499 470.9 125.199 468.9 123.399C466.9 121.599 467.4 119.399 471.2 112.999C473.1 109.699 473.7 107.599 473.3 105.099C472.5 100.099 467.9 98.4987 457.5 99.5987C436.3 101.799 425.9 99.2987 418.7 90.2987C413.6 84.0987 411.9 79.5987 411.9 73.1987C411.9 66.8987 414.4 61.4987 418.3 59.3987C419.8 58.5987 422.2 57.2987 423.8 56.4987C427 54.7987 434.8 55.2987 442.4 57.6987ZM562.1 137.599C568.8 139.599 572.1 142.899 575 150.599C578.6 160.099 577.2 170.799 570.5 185.499C569.2 188.299 567.8 191.799 567.5 193.299C566.4 197.399 565.4 197.399 561.6 193.299C557.7 188.999 552.9 186.899 541.9 184.499C536.5 183.299 533.2 181.999 530.6 179.799C519.4 170.599 520.4 154.599 532.9 143.899C535.6 141.599 538.4 139.499 539.2 139.299C539.9 139.199 542.8 138.399 545.5 137.599C552.1 135.699 555.5 135.699 562.1 137.599Z" fill="black"/>
<path d="M562.5 145.198C562.9 146.498 563.7 149.698 564.4 152.398C565.5 157.098 567.9 159.798 568.1 156.798C568.6 151.798 565.5 142.998 563.3 142.998C562.2 142.998 562 143.598 562.5 145.198Z" fill="black"/>
<path d="M571.9 156.2C571.8 156.9 571.7 158.6 571.5 160C571.1 165.5 569.6 171.7 567.4 177.7C564.6 185.1 564.5 186 566.5 186C567.3 186 568 185.9 568 185.7C568 185.6 569.3 181.6 570.9 176.9C573.8 168.4 574.3 165.6 574.1 158.7C574 155.3 572.2 153.3 571.9 156.2Z" fill="black"/>
<path d="M539 55.8988C539 57.4988 539.4 59.9988 540 61.3988C540.9 63.8988 539.8 65.0988 538.5 62.9988C537.6 61.4988 529.9 57.7988 529.2 58.4988C528.8 58.7988 529 59.6988 529.5 60.4988C530.1 61.2988 531.8 63.6988 533.4 65.9988C536.5 70.3988 536.3 72.4988 533 69.4988C531.6 68.1988 530.6 67.9988 529.9 68.6988C528.7 69.8988 530.6 74.2988 534.8 79.6988C537.5 83.2988 537.2 85.8988 534 86.6988C530.9 87.4988 531.6 88.7988 536.1 90.0988C538.4 90.7988 540.3 91.8988 540.5 92.3988C540.7 92.9988 541.6 95.6988 542.5 98.3988C547.3 111.699 562.2 118.899 574.8 114.099C579.4 112.399 580 112.399 581.4 113.799C582.9 115.299 583 115.299 583 113.799C583 112.999 582.3 111.699 581.5 110.999C578.5 108.499 575.8 98.8988 576.3 92.2988C576.7 86.6988 579.6 79.7988 582.2 77.8988C582.7 77.5988 583 73.7988 582.8 69.3988L582.5 61.4988L578 59.1988C570.1 55.1988 558.2 56.5988 552.2 62.2988C549.9 64.3988 549.8 64.3988 548.8 62.5988C547.2 59.7988 540.9 52.9988 539.9 52.9988C539.4 52.9988 539 54.2988 539 55.8988ZM556.6 70.3988C557.7 74.9988 555.4 85.9988 553.1 87.4988C551.6 88.3988 551.7 86.3988 553.5 80.5988C554.4 77.6988 554.7 74.1988 554.4 71.8988C553.7 67.4988 555.5 66.2988 556.6 70.3988ZM549 94.8988C549 97.3988 553.4 102.599 557.1 104.599C560.2 106.199 560.9 107.999 558.5 107.999C557.7 107.999 554.7 105.799 552 103.199C548.4 99.7988 547 97.5988 547 95.6988C547 94.1988 547.5 92.9988 548 92.9988C548.6 92.9988 549 93.8988 549 94.8988Z" fill="black"/>
<path d="M582.2 92.4986C582.2 94.0986 582.4 94.6986 582.7 93.6986C582.9 92.7986 582.9 91.3986 582.7 90.6986C582.4 90.0986 582.2 90.7986 582.2 92.4986Z" fill="black"/>
<path d="M56.7 95.8C53.1 99.8 55.7 107 60.8 107C63.3 107 66 103.5 66 100.3C66 97.5 62.7 94 60.2 94C59.1 94 57.6 94.8 56.7 95.8Z" fill="black"/>
<path d="M45.4999 112.3C42.7999 116.4 45.4999 123 49.7999 123C53.3999 123 55.6999 121.2 56.4999 117.8C56.9999 115.7 56.5999 114.5 54.5999 112.6C51.3999 109.3 47.4999 109.2 45.4999 112.3Z" fill="black"/>
<path d="M220.9 114.9C219.7 118.4 218.8 118.7 217 116.5C214.8 113.8 213.7 114.8 214.4 119C214.9 122.3 214.7 123.1 213.3 123.6C203.5 126.5 197.8 132.5 197.8 139.8C197.8 155.8 215.7 163.9 227.3 153.1C233.4 147.5 234.5 139.9 230.5 131.9L227.9 127L230.5 124.6C231.9 123.3 233 121.8 233 121.2C233 119.7 230.8 119.1 228.7 120.2C226.4 121.4 226.5 121.4 225.4 116.6C224.2 111.6 222.3 110.9 220.9 114.9ZM224.2 121C224.4 122.7 225.1 123.5 226.3 123.4C228.3 123.2 228.4 123.4 226.8 125.9C225.9 127.4 226.1 128.6 228.3 132.3C231.6 137.9 231.8 142.9 228.8 148.2C223.4 157.8 209.4 158.6 202.6 149.7C200.5 147 200 145.2 200 140.5C200 135.2 200.3 134.5 203.8 130.9C206.3 128.5 209.4 126.6 212.3 125.8C215.8 124.9 217 124.1 217 122.7C217 121.4 217.5 121 218.5 121.4C219.5 121.8 220.5 121.1 221.2 119.5C222.5 116.6 223.7 117.3 224.2 121Z" fill="black"/>
<path d="M36.0999 135.6C33.4999 139 33.4999 141 35.9999 143.8C40.0999 148.2 45.9999 145.7 45.9999 139.6C45.9999 133.3 39.7999 130.9 36.0999 135.6Z" fill="black"/>
<path d="M369 153.599C358.8 154.899 342.2 157.099 332 158.599C321.8 159.999 310.7 161.499 307.2 161.999C303.8 162.399 300.3 163.299 299.6 163.899C298.6 164.699 299.9 168.099 306 180.199C310.4 189.099 315.6 201.399 318.3 209.699C323.3 224.799 323.6 226.599 321.9 227.199C321.2 227.399 321.2 229.599 322 234.299C323.3 241.499 322.9 253.499 321.3 255.099C320.8 255.599 316.8 256.199 312.5 256.399C304.8 256.799 299 258.399 299 260.199C299 261.199 298.7 261.199 303.5 259.499C308.2 257.799 313 257.599 313 258.999C313 259.499 312.1 259.999 311 259.999C306.2 259.999 299.7 264.699 297 269.999C294.9 274.199 295.8 277.599 299.5 278.999C302.1 279.999 302.6 280.999 301.1 282.499C300.1 283.599 299.7 286.099 299.9 289.799C300.1 293.399 305.8 295.599 311.6 294.299L316.2 293.199L315.8 298.099C315.4 301.899 314.6 303.499 312.2 305.899C308.4 309.399 307.9 314.699 310.9 319.599C311.9 321.199 313 325.499 313.4 329.099C314.1 335.699 317.4 344.299 320.4 347.299C321.4 348.199 323.3 348.999 324.7 348.999C327.2 348.999 327.2 349.099 326.6 354.799C325.3 365.499 324.9 366.699 322.4 367.899C321.1 368.499 320 369.799 320 370.899C320 373.199 317.2 374.299 313.6 373.399C309.4 372.399 308 374.399 308 381.699C308 387.199 307.7 388.399 305.4 390.699C303 393.099 302.4 393.199 296.7 392.599C293.3 392.199 284.8 391.699 277.8 391.299L265 390.699L261.7 394.399L258.3 398.099L251.4 397.099C237.8 395.299 213.3 388.299 206.3 384.299C195.5 378.099 194.7 377.599 189.8 374.299C185.3 371.099 185.2 370.899 186.3 367.899C187.5 364.799 187.4 364.599 181.5 359.399C178.2 356.399 175 353.999 174.3 353.999C173.7 353.999 173 353.699 172.8 353.199C172.7 352.799 171.5 351.799 170.4 350.999C169.2 350.199 164.3 346.599 159.4 343.099L150.6 336.699L146.2 339.099L141.7 341.399L139.3 338.499C138 336.799 136.2 334.099 135.3 332.499C134.4 330.799 131.2 325.699 128 320.999C124.9 316.299 119.7 308.399 116.5 303.499C113.3 298.499 105.5 287.099 99.1001 277.999C92.7001 268.899 86.7001 260.299 85.8001 258.899C84.9001 257.399 81.6001 253.499 78.4001 250.099C74.6001 245.999 70.9001 240.199 66.9001 232.299C59.7001 218.199 59.2001 217.599 57.3001 219.199C56.1001 220.199 56.0001 222.099 56.5001 228.999C57.1001 236.199 56.9001 237.799 55.6001 238.899C52.0001 241.899 44.8001 237.899 32.7001 226.299C29.1001 222.799 26.4001 220.999 25.5001 221.399C24.2001 221.899 24.4001 222.799 26.6001 227.099L29.2001 232.299L24.7001 228.599C19.4001 224.299 17.3001 224.099 15.8001 227.699C14.4001 231.099 14.7001 232.699 17.1001 236.099C18.4001 237.999 18.6001 238.999 17.8001 239.799C16.5001 241.099 16.1001 240.599 26.3001 252.199C30.0001 256.399 35.2001 261.399 37.8001 263.299C42.0001 266.399 43.4001 266.799 51.0001 267.399C68.2001 268.699 72.7001 271.499 81.0001 285.999C83.4001 290.099 87.1001 296.599 89.3001 300.499C91.5001 304.299 95.6001 311.799 98.3001 316.999C103.1 326.399 105.8 331.099 116 348.499C125.9 365.299 125.1 363.099 123 368.899L121 373.899L128.7 383.699C143.2 402.399 151 410.699 151 407.499C151 407.099 148 403.399 144.2 399.199C136.2 389.999 130 382.499 127.7 378.899C126 376.399 126.1 376.299 130.6 371.899C135.1 367.499 148.6 349.799 151 344.999C151.7 343.599 152.4 342.399 152.5 342.199C153.2 341.399 158.1 344.699 170.8 354.299C186.1 365.699 186 365.399 179.5 375.499C177.6 378.599 176 381.299 176 381.499C176 381.799 174.1 384.999 171.7 388.699C169.3 392.499 165.7 398.299 163.7 401.699L160.1 407.999L163.8 407.899C165.8 407.899 166.9 407.599 166.3 407.299C165.6 407.099 165 406.199 165 405.499C165 404.399 182.1 374.599 183.5 373.099C184.1 372.499 202.9 385.399 212.5 393.099C217.4 396.999 224 401.499 227.2 403.099C233.5 406.299 234 406.399 234 405.099C234 404.699 231.2 402.799 227.8 400.999C221.5 397.599 213.7 391.999 214.4 391.299C214.6 391.099 218.3 391.899 222.6 392.999C227 394.199 232 395.299 233.9 395.599C235.7 395.799 238.6 396.599 240.4 397.399C242.1 398.199 245.3 398.899 247.5 398.899C253.5 399.099 255.1 399.499 256.1 401.099C256.9 402.199 257.9 401.599 261.1 397.999L265.2 393.499H273.4C277.8 393.499 286.5 393.899 292.7 394.399L303.9 395.299L307 392.199C309.2 389.899 310 388.199 310 385.599C310 383.599 310.3 381.999 310.7 381.999C311.6 381.999 321.6 389.699 324 392.299C326.1 394.499 326.1 394.499 324.1 396.099C321.6 398.199 311.6 402.199 302 405.099C297.2 406.599 295.3 407.499 296.7 407.799C299.4 408.199 311.6 404.599 319.7 400.999C327.1 397.599 332.3 392.499 335.8 385.099C338.4 379.699 338.6 379.499 342.5 379.499C347.1 379.599 362.3 380.899 362.7 381.299C362.8 381.499 363.4 384.599 363.9 388.299C364.4 391.899 365.1 395.399 365.5 395.999C368 399.999 383 402.299 403 401.799C416.5 401.499 416.5 401.499 416.8 403.799C417.1 405.499 417.6 405.999 418.7 405.599C419.6 405.199 421.1 405.699 422.2 406.599C423.2 407.599 424.3 407.999 424.8 407.599C425.2 407.199 424.4 405.999 423 404.899C421.6 403.899 419.6 402.099 418.4 400.899C416.5 398.999 415.4 398.899 403.9 399.299C390.7 399.799 375.3 398.599 370.7 396.799C368 395.699 366 392.599 366 389.399C366 387.399 367.4 387.599 374.8 391.099C383.2 395.099 390.4 395.899 396.5 393.499C399 392.599 401 391.499 401 391.099C401 390.699 399.4 389.799 397.5 389.099C394.2 387.999 387 381.599 387 379.999C387 379.599 388.4 378.999 390.2 378.599C399.3 376.799 407 370.099 413 358.799C414.8 355.299 416.7 352.299 417.2 352.199C418.3 351.699 418.2 348.299 417.1 347.599C416.7 347.299 414.8 347.499 412.9 347.999C411 348.599 405.2 349.499 400 349.999C380.1 352.199 376.1 353.999 369 364.099C365.3 369.299 359.4 374.999 357.7 374.999C357.3 374.999 357 373.599 357 371.799C357 370.099 356.3 367.899 355.4 366.899C354 365.299 354 364.199 356 354.299C357.4 346.899 358.6 343.199 359.8 342.499C360.7 341.899 362.6 340.299 364.1 338.799C365.5 337.299 367.8 335.799 369.1 335.499C372.2 334.699 374.4 332.999 375.8 330.399C376.6 328.999 378.2 328.099 380.9 327.699C387.6 326.799 392.9 321.499 393 315.699C393 313.699 394.1 311.899 396.7 309.699C405.8 301.799 407.6 298.099 406.5 289.399C406 285.399 404.9 282.799 402.4 279.399L398.9 274.899L401 265.199C403.3 254.799 403.8 240.199 402 235.599C401.5 234.199 399.9 232.399 398.4 231.799C396.2 230.799 395.9 230.199 396.4 227.599C397.9 220.399 396.9 168.699 395.1 156.099C394.5 151.699 394.4 151.499 391 151.299C389.1 151.299 379.2 152.299 369 153.599ZM393.4 158.199C394.4 166.699 395.4 217.999 394.6 224.199C393.9 229.399 393.6 229.999 391.5 229.999C388.4 229.999 388.2 229.699 387.5 220.899C386.4 206.599 385.8 202.999 384.8 202.999C383.7 202.999 384.2 217.199 385.6 225.199C386.3 229.399 385.4 229.899 380.6 227.999C378.1 227.099 378.1 226.899 377.8 214.899C377.6 206.499 377.1 202.499 376.3 202.299C375.4 201.999 375.2 204.899 375.3 213.999C375.4 220.699 375.2 226.399 374.9 226.599C373.6 227.399 364.8 225.699 364.5 224.599C364.4 223.999 363.8 220.999 363.2 217.999C361.7 209.699 359 200.999 357.9 200.999C356.5 200.999 356.8 203.899 359 210.699C360.1 214.199 361.2 219.099 361.6 221.599C362.2 226.099 362.2 226.099 359.4 225.799C356.2 225.499 355.5 223.699 354.5 213.999C353.9 208.499 352.6 204.999 351.5 206.099C351.2 206.499 351.4 208.799 351.9 211.299C352.5 213.799 353.2 218.099 353.6 220.899L354.2 225.999H350.7C348.2 225.999 347 225.499 346.6 224.199C346.1 222.599 341 197.299 341 196.399C341 196.199 340.5 195.999 339.9 195.999C338.5 195.999 339 199.399 342 212.399C345 225.699 344.9 225.999 339.5 225.999C335.9 225.999 335 225.699 335 224.199C335 220.699 333 199.399 332.5 197.199C332.2 195.999 331.5 194.999 330.9 194.999C330.1 194.999 330 196.499 330.4 199.699C330.8 202.399 331.3 209.399 331.7 215.299L332.3 226.099L329.1 225.799C325.9 225.499 325.9 225.499 320.1 208.499C316.8 198.699 311.6 186.199 307.9 178.999C304.4 172.099 301.4 166.199 301.2 165.799C301 165.399 302.4 164.899 304.2 164.599C306 164.399 312.5 163.399 318.5 162.499C324.6 161.599 341.9 159.299 357 157.399C372.1 155.499 385 153.799 385.5 153.599C386.1 153.299 387.9 153.099 389.6 153.099C392.6 152.999 392.7 153.199 393.4 158.199ZM65.0001 233.499C68.5001 240.499 72.4001 246.399 76.7001 251.199C80.2001 255.199 85.5001 262.099 88.5001 266.499C91.4001 270.899 97.0001 278.999 101 284.499C104.9 289.999 110.2 297.599 112.7 301.499C115.2 305.299 120.8 313.899 125.1 320.499C129.4 327.099 135.7 336.399 139 341.299C142.7 346.599 144.8 350.499 144.3 351.299C143.1 353.399 130.9 368.999 130.5 368.999C130.4 368.999 127.6 364.399 124.4 358.699C121.2 353.099 117.9 347.399 117 345.999C114.7 342.699 106.4 327.799 100.3 315.999C88.8001 294.099 79.2001 278.199 74.6001 273.199C69.9001 268.199 64.6001 266.299 52.0001 265.499C46.9001 265.099 42.5001 264.199 41.1001 263.299C35.1001 259.399 19.1001 242.499 20.3001 241.299C20.7001 240.999 23.9001 243.499 27.6001 246.899C31.3001 250.299 34.6001 252.799 34.9001 252.399C35.2001 252.099 32.1001 248.599 27.9001 244.699C20.5001 237.699 16.3001 232.399 17.4001 231.299C17.6001 230.999 20.5001 233.299 23.6001 236.399C26.8001 239.499 30.0001 241.999 30.7001 241.999C31.4001 241.999 28.9001 238.999 25.0001 235.399C21.2001 231.699 18.0001 228.399 18.0001 227.899C18.0001 225.799 20.6001 227.399 26.7001 233.199C33.4001 239.699 39.0001 243.799 39.0001 242.299C39.0001 241.199 33.6001 233.499 30.2001 229.799C26.2001 225.399 28.2001 224.799 32.9001 229.099C47.3001 242.199 54.0001 244.999 57.6001 239.499C59.0001 237.399 59.2001 235.499 58.7001 229.399C58.3001 224.999 58.4001 222.099 58.9001 222.499C59.4001 222.799 62.2001 227.699 65.0001 233.499ZM384.5 230.899C400.4 234.099 399.7 233.499 400.5 242.299C401.6 253.999 398.5 273.599 395.6 272.699C395 272.499 394 268.799 393.4 264.399C391.7 251.699 386.3 243.399 377.3 239.299C370.6 236.399 363.7 236.299 359.2 238.999C355.3 241.399 353.9 241.499 346.1 239.399C338.8 237.599 333.9 238.199 328.8 241.499L325 243.999V241.299C325 239.699 324.7 236.099 324.4 233.099L323.8 227.799L348.6 228.299C368.7 228.599 375.6 229.199 384.5 230.899ZM348.3 241.599C351.3 242.699 350.1 243.599 346 243.199C339.2 242.499 335.6 243.799 330.4 248.499C323.5 254.799 322.3 254.499 326.3 247.499C329.4 241.899 334 239.699 341.1 240.399C344.2 240.699 347.4 241.199 348.3 241.599ZM337.7 273.599L342.3 278.199L349.1 277.499C352.8 277.099 356.8 277.099 357.9 277.499C360.4 278.299 364.3 284.399 363.7 286.699C363.4 288.099 363 287.899 362.1 285.599C359.8 279.899 357.5 278.799 348.9 279.599L341.2 280.199L337.4 276.099C333 271.499 330.6 270.999 325.8 273.999C320.9 276.999 314 276.099 314 272.499C314 271.299 314.5 271.399 316.9 272.799C319.7 274.399 320 274.399 325.1 271.699C328 270.199 331 268.999 331.8 268.999C332.6 268.999 335.3 271.099 337.7 273.599ZM385.5 271.699C389.1 275.299 391.4 278.899 390.7 279.699C390.3 279.999 389 278.999 387.6 277.399C386.3 275.799 384.3 273.399 383.1 272.099C379.4 267.899 381.3 267.599 385.5 271.699ZM304.2 290.699C304.9 291.599 304.9 291.999 304.2 291.999C302.5 291.999 300.9 288.399 301.7 286.299C302.4 284.799 302.5 284.899 302.8 286.999C303 288.399 303.7 290.099 304.2 290.699ZM334.9 286.999C338.6 288.699 339.9 288.899 342.8 287.899C347.9 286.199 352 287.499 356.2 292.099C359.3 295.499 360.4 296.099 362.5 295.599C366.3 294.599 370.5 299.099 369.4 302.799C369 304.299 368.6 308.199 368.5 311.499C368.5 314.799 367.9 318.499 367.2 319.799C365.5 322.799 366.5 324.199 369.5 322.799C372.9 321.199 375 322.399 375 325.999C375 329.499 372.2 332.699 368.3 333.599C366.8 333.999 364.2 335.799 362.5 337.499C359.9 340.199 358.1 340.999 349 342.799C338.3 344.999 335.9 345.399 328.3 346.599C324.6 347.099 323.5 346.899 321.5 344.999C317.3 341.099 315.5 333.899 315.7 321.499C315.8 315.399 316.3 308.499 316.8 305.999L317.6 301.499L323.3 301.599C326.4 301.699 329 301.399 329 300.999C329 299.999 325.3 298.999 321.8 298.999C320.3 298.999 318.9 298.599 318.6 298.199C317.5 296.399 320 289.399 322.5 287.199C325.7 284.499 329.1 284.399 334.9 286.999ZM393.8 292.999C393.5 296.099 392.2 299.599 390.2 302.799C388.1 305.999 387 308.899 387 311.399C387 315.699 384.8 320.499 382.1 321.999C378.7 323.699 378.7 323.099 381.9 319.499C384.3 316.699 385 314.999 385 311.699C385 309.399 385.6 306.499 386.3 305.399C391 297.299 392.1 294.499 392 291.199C391.7 285.099 391.9 284.199 393.1 286.399C393.7 287.399 394 290.399 393.8 292.999ZM403.9 299.199C402.8 301.899 396.1 308.399 395.3 307.599C395.1 307.399 396.7 304.399 398.9 300.999C401.2 297.499 403 293.899 403 292.999C403 292.099 403.3 290.999 403.8 290.599C405.1 289.199 405.2 296.099 403.9 299.199ZM314.3 311.199C313.7 316.899 313.2 318.199 312.1 317.599C310.3 316.399 309.9 311.799 311.5 309.399C313.8 305.799 314.9 306.499 314.3 311.199ZM355.6 346.699C355.3 348.199 354.3 353.499 353.4 358.299C351.4 368.799 350.7 369.399 341.8 368.199C338.3 367.699 333.5 367.499 331.1 367.799L326.7 368.199L327.5 363.899C327.9 361.499 328.5 356.999 328.9 354.099L329.5 348.599L338.3 346.899C343.1 345.899 347.5 344.999 348.2 344.799C348.8 344.599 350.9 344.299 352.8 344.199C356 343.899 356.1 344.099 355.6 346.699ZM410.5 357.699C401.9 373.299 392.7 377.899 375.3 375.499C372.4 375.099 370.3 374.399 370.5 373.899C370.8 373.499 374.1 372.199 377.8 370.899C388.6 367.399 401 360.599 401 358.199C401 356.099 398.5 356.799 391.3 360.899C387.6 362.999 382 365.499 379 366.499C376 367.499 372.2 368.899 370.7 369.699C367.4 371.299 367.5 371.199 372.5 364.199C376.6 358.499 385.1 354.399 394.5 353.499C405.4 352.599 411.5 351.799 411.9 351.399C412.1 351.199 412.7 350.999 413.3 350.999C413.8 350.999 412.5 353.999 410.5 357.699ZM343.7 371.399C344.9 371.799 347.6 371.599 349.7 371.099C354.1 369.799 355 370.499 354.3 374.399L353.7 377.299L345.9 376.699C337.7 376.099 336.4 376.499 334.1 380.899C333.4 382.199 332.1 382.499 328.6 382.299C321.6 381.899 320.7 385.099 327.7 385.699C329.6 385.799 331.4 386.099 331.6 386.299C331.9 386.499 331 387.899 329.8 389.499L327.7 392.299L324.9 388.899C322.8 386.399 322 384.399 322 381.199V376.999L326.3 376.899C333 376.699 333.5 376.599 333.5 374.999C333.5 373.899 332.1 373.399 328.3 373.199C323.6 372.899 322.1 372.199 323.4 370.899C324.1 370.199 341.4 370.599 343.7 371.399ZM380.7 386.599C384.9 388.499 386.2 389.999 383.8 389.999C383.1 389.999 380.3 388.899 377.6 387.499C374.9 386.099 371.9 384.999 370.9 384.999C368.7 384.999 367.5 383.299 369.2 382.699C370.5 382.299 373.5 383.299 380.7 386.599Z" fill="black"/>
<path d="M42.6001 247.899C42.2001 248.399 41.7001 250.899 41.4001 253.399C40.6001 259.099 42.5001 259.699 43.4001 254.099C43.7001 251.899 44.3001 249.499 44.6001 248.599C45.2001 246.899 43.5001 246.299 42.6001 247.899Z" fill="black"/>
<path d="M53 256.999C53 257.599 53.6 257.999 54.3 257.999C64.2 258.399 66.4 258.999 70.4 262.099C72.6 263.899 75.1 265.799 75.8 266.299C76.6 266.999 77 266.799 77 265.699C77 264.899 74.6 262.599 71.7 260.599C67.1 257.399 65.3 256.799 59.7 256.499C55.7 256.199 53 256.499 53 256.999Z" fill="black"/>
<path d="M343.3 300.999C342 301.499 341 302.099 341 302.199C341 302.399 343.7 302.499 346.9 302.499C351.6 302.499 353.6 302.999 356 304.899C359.1 307.199 360.9 307.199 359.5 304.999C358.4 303.199 350.9 299.999 348 300.099C346.6 300.099 344.5 300.499 343.3 300.999Z" fill="black"/>
<path d="M328.9 312.7C328.7 315.4 329.1 317.4 330 318.3C330.4 318.8 330.7 317.3 330.6 315.1C330.5 311.1 329.1 309.2 328.9 312.7Z" fill="black"/>
<path d="M325.7 326.999C324.3 328.099 322 328.999 320.6 328.999C315.8 328.999 318.3 332.499 323.9 333.599C329.1 334.699 333.3 329.199 329.6 326.099C328.6 325.299 327.7 325.499 325.7 326.999Z" fill="black"/>
<path d="M334.2 327.199C331.8 329.599 332.8 332.899 336.4 334.699C340.2 336.499 343.9 335.999 346.6 333.199C348.3 331.599 348.3 331.499 346 331.199C344.7 330.999 342.2 329.699 340.5 328.399C336.9 325.699 335.9 325.499 334.2 327.199Z" fill="black"/>
<path d="M368.5 328.2C368.6 329.5 369.1 330.5 369.6 330.5C370.1 330.5 370.6 329.5 370.8 328.2C371 326.8 370.6 326 369.7 326C368.9 326 368.4 326.9 368.5 328.2Z" fill="black"/>
<path d="M179 171.7C176.6 172.6 172 177.2 170.4 180.2C169.7 181.6 168.8 185.3 168.4 188.3C167.9 192.6 168.2 194.6 169.9 198.6C172.6 204.5 177.7 209.4 182.7 210.7C191 212.8 202.8 207.3 206.4 199.6C208.5 195.1 208.5 186.4 206.2 182.1C204.1 177.8 198.5 173.3 194.5 172.6C188.7 171.5 180.5 171.1 179 171.7ZM198.8 176.4C202.8 178.5 205.9 184.7 206.1 191.1C206.4 197 203.3 202.7 198.8 205.1C196 206.6 196.5 202.6 199.4 199.8C202.6 196.8 203.1 193.6 200.5 193.2C199.4 193.1 197.6 191.3 196.5 189.3C193.9 184.6 192.6 184.2 191.1 187.9C189.8 190.8 189.8 190.8 186.9 189.2C184.3 187.7 183.8 187.7 183 189C182.4 189.8 182.2 192 182.5 193.8C183 196.2 182.5 197.9 180.9 200.2C179 202.8 178.9 203.6 179.9 205.3C181.1 207.2 181 207.2 178.4 205.1C174.3 201.8 172.2 198.3 171.5 193.1C170.6 186.6 173.4 179.3 178 176.2C181.1 174.1 182.4 173.9 188.5 174.2C192.4 174.5 197 175.5 198.8 176.4ZM194.2 198.9C193.4 199.8 191.7 200.3 190.4 200.2C189.2 200 187.9 200.4 187.5 200.9C186.1 203.3 185.2 201.8 186.5 199.3C187.3 197.8 187.6 196.2 187.3 195.7C186.9 195.1 187.3 194.9 188.2 195.3C189.1 195.6 190.6 195.3 191.7 194.5C193.3 193.3 193.6 193.4 194.6 195.3C195.5 196.9 195.4 197.7 194.2 198.9ZM192 207.1C192 208.2 183.3 208.3 182.6 207.2C182.4 206.8 183.3 206.3 184.8 206.2C186.2 206.1 187.8 205.6 188.4 205C189.4 204 192 205.5 192 207.1Z" fill="black"/>
<path d="M137.1 187.199C136.6 188.499 136.5 190.199 136.7 190.999C139.1 198.599 140.8 199.799 143.6 195.499C145.3 192.899 144.7 187.199 142.6 185.799C140.5 184.299 137.9 184.999 137.1 187.199Z" fill="black"/>
<path d="M130 211.999C127.1 214.899 127.4 218.799 130.4 219.599C133.6 220.399 136.6 219.399 139 216.699C141.4 214.199 141.5 213.599 139.4 211.599C137.2 209.399 132.4 209.599 130 211.999Z" fill="black"/>
<path d="M110.6 215.099C107 217.899 107.2 223.299 110.8 223.799C115.6 224.499 120 217.399 116.8 214.199C115.1 212.499 113.6 212.699 110.6 215.099Z" fill="black"/>
<path d="M577.9 221.498C576.4 222.298 573.7 223.198 571.9 223.498C560.9 225.398 551.5 228.098 547.6 230.398C534.8 237.898 535.7 253.598 549.9 268.998C552.7 271.998 555 274.798 555 275.198C555 276.598 550.5 278.298 547 278.198C539.7 277.798 528.5 274.498 524.3 271.398C522.6 270.098 520.8 268.998 520.5 268.998C520.1 268.998 518.4 268.298 516.7 267.498C513.2 265.998 495.1 263.998 494.4 265.098C493.9 265.998 497.7 266.998 502.5 266.998C509.3 267.098 521 270.198 521 271.998C521 272.398 519.1 272.498 516.8 272.298C513.1 271.898 497.6 275.098 496.1 276.598C494.7 277.998 497.7 277.798 505 275.998C517.3 272.898 519 273.598 510.8 278.498C507.1 280.698 504 283.098 504 283.898C504 284.898 504.7 284.798 506.8 283.398C513.2 279.198 518 276.898 521.8 276.398C525.7 275.898 526.2 276.098 530.7 280.498C535.9 285.598 541.9 288.898 546.1 288.998C550.2 288.998 550.2 289.998 546.2 294.498C543 298.198 530 319.698 530 321.398C530 324.198 533.8 319.198 539.3 308.998C545.1 298.298 549.5 292.698 554.3 289.898C557.5 287.998 557.5 291.698 554.2 295.498C552.5 297.398 549.9 301.098 548.4 303.698C546.8 306.298 543.2 311.798 540.2 315.798C537.3 319.898 535.1 323.498 535.5 323.798C536.4 324.698 540.9 319.098 546.2 310.698C556.2 294.698 559.2 292.198 559.8 299.398C560.3 305.598 558.4 311.198 552.4 321.098C549.4 326.098 547.2 330.498 547.5 330.898C548.6 331.998 551.5 327.698 558.4 314.598C560.4 310.798 562 308.098 562.1 308.598C562.9 315.598 559.6 326.998 555.3 331.998C552.9 334.698 552.3 335.998 553.4 335.998C555.4 335.998 559.6 330.398 561.4 325.198C564.6 316.198 565.2 309.498 563.4 302.398C561.9 296.298 562 292.198 563.5 297.098C563.9 298.398 565.6 301.598 567.3 304.298C570 308.798 570.2 309.698 569.8 316.298C569.3 324.498 566.7 330.898 562.1 335.798C557.8 340.398 558.2 342.198 562.6 337.898C567.2 333.498 570.7 326.598 571.6 320.098C572 317.298 572.6 314.998 573 314.998C573.9 314.998 576 321.998 576 325.098C576 330.098 573.7 335.398 569.8 339.598C567.5 342.098 566 344.398 566.5 344.798C566.9 345.198 569.2 343.298 571.6 340.698C579 332.498 579.8 323.598 574.1 311.698C569.3 301.398 566.6 288.998 569.3 288.998C570.1 288.998 571.3 289.698 572 290.498C572.7 291.298 575.4 293.298 578.1 294.998C585.2 299.398 584.2 296.298 576.9 291.498C568.3 285.898 547.5 263.998 543.9 256.798C539.7 248.498 539.8 241.398 544.2 236.498C548.5 231.598 553.1 229.398 563.6 227.498C575 225.398 583 222.798 583 221.198C583 219.598 581.2 219.698 577.9 221.498ZM558 278.598C558 279.398 557.5 279.798 557 279.498C556.4 279.098 556.2 278.398 556.5 277.898C557.4 276.498 558 276.798 558 278.598ZM554 279.998C554 280.498 553.4 281.098 552.8 281.098C552.1 281.198 550.5 281.398 549.3 281.498C548.1 281.598 547.3 281.298 547.6 280.798C547.9 280.398 548.5 280.198 548.9 280.398C549.3 280.698 550.2 280.498 551 279.898C553 278.698 554 278.798 554 279.998ZM544.4 282.998C546.6 283.498 549.6 283.598 551.2 283.498C554.3 283.098 556 284.798 553.9 286.098C550.1 288.498 539 286.198 535.9 282.398C534.6 280.798 534.7 280.698 537.5 281.498C539.2 281.898 542.3 282.598 544.4 282.998ZM559.7 282.698C558.8 283.598 557.7 283.998 557.3 283.598C556.9 283.198 557.2 282.498 558 281.998C560.5 280.398 561.5 280.898 559.7 282.698ZM566.7 292.998C566.8 295.798 566.6 297.998 566.4 297.998C566.1 297.998 565.2 296.398 564.4 294.398C563.2 291.598 563.2 290.498 564.1 289.398C566 287.098 566.5 287.798 566.7 292.998Z" fill="black"/>
<path d="M146.4 224.799C143.3 226.899 144.8 234.699 148.7 236.799C151.8 238.499 153.5 236.599 153.4 231.899C153.3 228.799 152.6 227.099 151 225.799C148.5 223.799 148 223.699 146.4 224.799Z" fill="black"/>
<path d="M122 234.999C120.5 237.799 121.8 243.799 124.3 245.499C129 248.799 133 246.399 133 240.499C133 234.799 124.4 230.499 122 234.999Z" fill="black"/>
<path d="M133 377.6C133 378.2 135.7 381.5 149.2 397.5C150.1 398.6 151.7 400.6 152.7 401.9C153.8 403.2 155.2 404.1 155.9 403.9C157 403.5 153.7 399.2 145.1 389.5C143.6 387.8 141.2 384.8 139.6 382.7C136.9 379.1 133 376.1 133 377.6Z" fill="black"/>
<path d="M173.4 405.099C172.6 406.499 174.4 408.299 176.2 407.799C177.3 407.599 177.2 407.099 175.8 405.799C174.7 404.699 173.8 404.399 173.4 405.099Z" fill="black"/>
</g>
<defs>
<clipPath id="clip0">
<rect width="583" height="408" fill="white"/>
</clipPath>
</defs>
</svg>
